<?xml version="1.0" encoding="utf-8"?>
<!-- Generator: Adobe Illustrator 23.0.3, SVG Export Plug-In . SVG Version: 6.00 Build 0)  -->
<svg version="1.1" id="Layer_1" xmlns="http://www.w3.org/2000/svg" xmlns:xlink="http://www.w3.org/1999/xlink" x="0px" y="0px"
	 viewBox="0 0 300 38.2" style="enable-background:new 0 0 300 38.2;" xml:space="preserve">
<style type="text/css">
	.st0{fill:#FFFFFF;}
	.st1{fill:#E1251B;}
</style>
<g>
	<path class="st0" d="M52.7,24.2h-4.6c0.6-3.4,3-5.1,7.2-5.1c5.1,0,7.7,1.7,7.8,5.1v6.3c0,5.1-3.1,7.3-8,7.7
		c-4.4,0.3-7.5-1.7-7.5-5.8c0.1-4.4,3.3-5.6,8-6.1c2-0.2,3-0.8,3-1.8c-0.1-1-1.1-1.6-3-1.6C53.9,22.9,53,23.3,52.7,24.2z M58.6,30.3
		v-1.7c-1.1,0.5-2.3,0.8-3.7,1.1c-1.8,0.3-2.8,1.2-2.8,2.6c0.1,1.5,0.9,2.2,2.3,2.2C57,34.4,58.6,32.9,58.6,30.3z"/>
	<path class="st0" d="M73,38.2c-5.6,0-8.4-3.2-8.6-9.5c0-6.3,2.8-9.5,8.5-9.6c4.5,0,7.1,2,7.9,6h-5c-0.6-1.3-1.5-1.9-3-1.9
		c-2.4,0-3.7,1.8-3.7,5.5c0,3.7,1.3,5.5,3.9,5.5c1.1,0,2-0.5,2.8-1.3c0.5-0.5,1-0.7,1.6-0.7h3.5C80,35.9,77.3,38.3,73,38.2z"/>
	<path class="st0" d="M87.7,23.2h-0.5v10.2c0,0.8,0.5,1.2,1.4,1.2H90v3.5c-1.5,0.1-3.1,0.1-4.9,0c-1.7-0.2-2.6-1.3-2.5-3.3V14.6H85
		c1.2,0,2.2,1.1,2.2,2.3v2.9H90v1C90,22.2,89,23.2,87.7,23.2z"/>
	<path class="st0" d="M94.4,14.5c1.5,0,2.3,0.8,2.2,2.3v1.4H92v-3.6H94.4z M94.4,19.8c1.5,0,2.2,0.7,2.2,2.2v16.2H92V19.8H94.4z"/>
	<path class="st0" d="M116,19.8l-6.5,18.4h-4.9l-6.5-18.4h5.1l3.7,12.9l3.2-11.3c0.3-1.1,1.1-1.6,2.3-1.6H116z"/>
	<path class="st0" d="M124.6,38.2c-5.6-0.2-8.4-3.4-8.4-9.7s2.8-9.4,8.4-9.4c5.8,0,8.6,3.6,8.2,10.8H121c0.2,2.8,1.4,4.2,3.7,4.2
		c1.1,0,2.1-0.5,3-1.3c0.4-0.5,0.9-0.7,1.6-0.7h3.4C131.6,36,129.1,38.2,124.6,38.2z M121.1,26.6h6.9c-0.3-2.4-1.4-3.7-3.4-3.7
		C122.6,22.9,121.4,24.1,121.1,26.6z"/>
	<path class="st1" d="M139.6,24.3H139v13.8h-4.6V19.3c-0.2-3.5,1.9-4.9,5.3-4.9c0.8,0,1.5,0,2.2,0.1v3.8h-1.2
		c-1.1,0-1.7,0.5-1.8,1.4v1.2h3V22C141.9,23.3,140.9,24.3,139.6,24.3z"/>
	<path class="st1" d="M145.9,14.5c1.5,0,2.3,0.8,2.2,2.3v1.4h-4.6v-3.6H145.9z M145.9,19.8c1.5,0,2.2,0.7,2.2,2.2v16.2h-4.6V19.8
		H145.9z"/>
	<path class="st1" d="M155.2,23.2h-0.5v10.2c0,0.8,0.5,1.2,1.4,1.2h1.4v3.5c-1.5,0.1-3.1,0.1-4.9,0s-2.6-1.3-2.5-3.3V14.6h2.4
		c1.2,0,2.2,1.1,2.2,2.3v2.9h2.8v1C157.5,22.2,156.5,23.2,155.2,23.2z"/>
	<path class="st1" d="M172.1,38.2c-1.5-0.1-2.3-0.8-2.3-2.3v-9.5c-0.1-1.9-1.1-2.9-3.2-2.9s-3.1,0.9-3.1,2.9v11.8h-4.7V27.4
		c0-5.3,2.6-7.9,7.9-7.9c5.3,0,7.8,2.6,7.8,7.9v10.8H172.1z"/>
	<path class="st1" d="M184,38.2c-5.6-0.2-8.4-3.4-8.4-9.7s2.8-9.4,8.4-9.4c5.8,0,8.6,3.6,8.2,10.8h-11.9c0.2,2.8,1.4,4.2,3.7,4.2
		c1.1,0,2.1-0.5,3-1.3c0.4-0.5,0.9-0.7,1.6-0.7h3.4C191.1,36,188.6,38.2,184,38.2z M180.5,26.6h6.9c-0.3-2.4-1.4-3.7-3.4-3.7
		S180.9,24.1,180.5,26.6z"/>
	<path class="st1" d="M201.8,34.5c1.9,0,2.9-0.6,2.9-1.7c0-0.9-1.6-1.7-4.8-2.3c-4.1-0.7-6.2-2.5-6.2-5.4c0-4,3.1-5.8,7.3-5.9
		c2.4,0,4.2,0.5,5.6,1.6c1.4,1.1,2.1,2.6,2.2,4.5h-2.9c-1.1,0-1.8-0.4-2.1-1.1c-0.3-0.8-1.3-1.3-2.8-1.3c-1.8,0-2.7,0.5-2.7,1.4
		c0,0.9,1.2,1.7,3.6,2.1c3.1,0.6,5.2,1.4,6.2,2.4c0.9,0.9,1.3,2,1.3,3.3c0,4.5-3.5,6.2-8.4,6.2c-2.6,0-4.5-0.6-5.8-1.6
		c-1.4-1-2.1-2.6-2.1-4.8h4.7C198.1,33.8,199.6,34.5,201.8,34.5z"/>
	<path class="st1" d="M218.9,34.5c1.9,0,2.9-0.6,2.9-1.7c0-0.9-1.6-1.7-4.8-2.3c-4.1-0.7-6.2-2.5-6.2-5.4c0-4,3.1-5.8,7.3-5.9
		c2.4,0,4.2,0.5,5.6,1.6c1.4,1.1,2.1,2.6,2.2,4.5h-2.9c-1.1,0-1.8-0.4-2.1-1.1c-0.3-0.8-1.3-1.3-2.8-1.3c-1.8,0-2.7,0.5-2.7,1.4
		c0,0.9,1.2,1.7,3.6,2.1c3.1,0.6,5.2,1.4,6.2,2.4c0.9,0.9,1.3,2,1.3,3.3c0,4.5-3.5,6.2-8.4,6.2c-2.6,0-4.5-0.6-5.8-1.6
		c-1.4-1-2.1-2.6-2.1-4.8h4.7C215.2,33.8,216.7,34.5,218.9,34.5z"/>
	<path class="st0" d="M236,34.5c1.9,0,2.9-0.6,2.9-1.7c0-0.9-1.6-1.7-4.8-2.3c-4.1-0.7-6.2-2.5-6.2-5.4c0-4,3.1-5.8,7.3-5.9
		c2.4,0,4.2,0.5,5.6,1.6c1.4,1.1,2.1,2.6,2.2,4.5h-2.9c-1.1,0-1.8-0.4-2.1-1.1c-0.3-0.8-1.3-1.3-2.8-1.3c-1.8,0-2.7,0.5-2.7,1.4
		c0,0.9,1.2,1.7,3.6,2.1c3.1,0.6,5.2,1.4,6.2,2.4c0.9,0.9,1.3,2,1.3,3.3c0,4.5-3.5,6.2-8.4,6.2c-2.6,0-4.5-0.6-5.8-1.6
		c-1.4-1-2.1-2.6-2.1-4.8h4.7C232.3,33.8,233.8,34.5,236,34.5z"/>
	<path class="st0" d="M250.2,23.2h-0.5v10.2c0,0.8,0.5,1.2,1.4,1.2h1.4v3.5c-1.5,0.1-3.1,0.1-4.9,0c-1.7-0.2-2.6-1.3-2.5-3.3V14.6
		h2.4c1.2,0,2.2,1.1,2.2,2.3v2.9h2.8v1C252.5,22.2,251.5,23.2,250.2,23.2z"/>
	<path class="st0" d="M270.3,28.7c0,6.3-2.8,9.5-8.4,9.5c-5.6,0-8.4-3.2-8.4-9.5c0-6.4,2.8-9.6,8.4-9.6
		C267.5,19.1,270.3,22.3,270.3,28.7z M258.3,28.7c0,3.6,1.3,5.4,3.6,5.4c2.4,0,3.5-1.9,3.6-5.5c0-3.6-1.2-5.4-3.5-5.4
		C259.5,23.2,258.3,25,258.3,28.7z"/>
	<path class="st0" d="M271.9,28.7c0.1-6,3.3-8.9,9.5-8.9h0.7v4.8h-1.6c-2.6,0-3.9,1.4-3.9,4v9.6h-4.7V28.7z"/>
	<path class="st0" d="M291.7,38.2c-5.6-0.2-8.4-3.4-8.4-9.7s2.8-9.4,8.4-9.4c5.8,0,8.6,3.6,8.2,10.8h-11.9c0.2,2.8,1.4,4.2,3.7,4.2
		c1.1,0,2.1-0.5,3-1.3c0.4-0.5,0.9-0.7,1.6-0.7h3.4C298.7,36,296.2,38.2,291.7,38.2z M288.1,26.6h6.9c-0.3-2.4-1.4-3.7-3.4-3.7
		C289.7,22.9,288.5,24.1,288.1,26.6z"/>
	<g>
		<path class="st1" d="M45.4,34c0-0.8-0.1-1.7-0.2-2.5c0-0.1,0-0.1,0-0.1c-0.1-0.7-0.1-1.5-0.2-2.2c-0.9-7.6-3.8-15.2-9.3-20.7
			C30.1,3,22.2,0,14.4,0C11,0.2,7.5,1,4.7,3c-2.9,2-5,5.6-4.7,9.2c0.2,3.8,2.7,7.4,6.2,9c4.1,1.9,8.6,1.9,13,2.3
			c2.1,0.1,4.3,0.4,6.2,1.3c0.6,0.3,1,0.8,1.3,1.3c0.3,0.6,0.5,1.2,0.5,1.8c0,0.6-0.1,1.3-0.4,1.8c-0.4,0.7-1,1.3-1.7,1.8
			c-0.4,0.3-0.8,0.5-1.2,0.7c-0.4,0.2-0.9,0.4-1.4,0.6c-0.5,0.2-1,0.4-1.5,0.5c-0.5,0.2-1.1,0.3-1.7,0.5c-0.6,0.1-1.2,0.3-1.7,0.4
			c-0.6,0.1-1.2,0.2-1.8,0.3c-0.6,0.1-1.2,0.2-1.8,0.3c-0.6,0.1-1.2,0.2-1.8,0.2c-0.6,0.1-1.2,0.1-1.8,0.2c-0.6,0.1-1.2,0.1-1.8,0.1
			c-0.6,0-1.1,0.1-1.7,0.1c-0.5,0-1,0-1.5,0.1c-0.5,0-0.9,0-1.4,0c-0.4,0-0.8,0-1.2,0c-0.3,0-0.6,0-1,0c-0.2,0-0.5,0-0.7,0
			c-0.1,0-0.3,0-0.4,0c0,0-0.1,0-0.1,0C0.3,35.7,0,36,0,36.3c0,0,0,0.1,0,0.1c0.1,0.3,0.3,0.5,0.6,0.5c0,0,0,0,0,0c0,0,0,0,0,0
			c7.3,1,12.7,1.7,20.8,0.5c4-0.7,8.1-2,11-5c2.4-2.5,3.2-6.4,1.7-9.6c-1.9-4.3-6-7.2-10.3-9c-3.9-1.6-8.1-1.9-12.3-1.7
			c2.7-1.9,6.2-2.1,9.3-1.8c6.9,0.7,13.3,4.9,17.2,10.6c3.1,4.6,5.3,10,6,15.8c0,0,0.1,0.7,0.1,0.7c0,0.3,0.3,0.5,0.5,0.6
			c0,0,0.1,0,0.1,0c0.4,0,0.7-0.3,0.7-0.7C45.5,36.9,45.5,35.4,45.4,34z"/>
		<path class="st1" d="M44.3,1.4c3.4-0.8,6.9,2.1,7,5.5c0.4,4-4.1,7.5-7.9,5.9c-3.5-1.1-5.1-5.6-3.1-8.6C41.2,2.8,42.6,1.7,44.3,1.4
			z"/>
	</g>
</g>
</svg>
